<?xml version="1.0" encoding="UTF-8"?>
<!DOCTYPE svg PUBLIC "-//W3C//DTD SVG 1.1//EN" "http://www.w3.org/Graphics/SVG/1.1/DTD/svg11.dtd">
<svg xmlns="http://www.w3.org/2000/svg" version="1.1" width="512px" height="512px" style="shape-rendering:geometricPrecision; text-rendering:geometricPrecision; image-rendering:optimizeQuality; fill-rule:evenodd; clip-rule:evenodd" xmlns:xlink="http://www.w3.org/1999/xlink">
<g><path style="opacity:0.945" fill="#000000" d="M 210.5,-0.5 C 241.833,-0.5 273.167,-0.5 304.5,-0.5C 306.901,0.745833 308.401,2.74583 309,5.5C 309.5,11.8246 309.666,18.1579 309.5,24.5C 328.503,24.6666 347.503,24.4999 366.5,24C 368.126,21.3723 370.126,19.039 372.5,17C 423.336,29.8147 458.836,60.648 479,109.5C 488.644,134.282 490.644,159.616 485,185.5C 482.197,193.11 478.364,200.11 473.5,206.5C 482,225.5 490.5,244.5 499,263.5C 503.964,277.319 499.464,286.152 485.5,290C 480.845,290.499 476.179,290.666 471.5,290.5C 471.666,299.839 471.5,309.173 471,318.5C 466.033,324.469 460.699,330.135 455,335.5C 454.667,352.5 454.333,369.5 454,386.5C 453.215,388.286 452.049,389.786 450.5,391C 430.59,392.642 410.59,392.975 390.5,392C 371.857,383.93 354.024,374.43 337,363.5C 330.667,373.833 324.333,384.167 318,394.5C 317.333,409.5 317.333,424.5 318,439.5C 337.333,458.833 356.667,478.167 376,497.5C 378.459,502.797 377.625,507.464 373.5,511.5C 279.5,511.5 185.5,511.5 91.5,511.5C 86.4339,507.944 85.2672,503.278 88,497.5C 113,472.5 138,447.5 163,422.5C 163.333,379.833 163.667,337.167 164,294.5C 164.833,292.333 166.333,290.833 168.5,290C 178.161,289.5 187.828,289.334 197.5,289.5C 197.5,275.5 197.5,261.5 197.5,247.5C 192.874,248.3 189.04,246.966 186,243.5C 183.132,231.296 180.799,218.963 179,206.5C 177.255,205.044 175.422,203.711 173.5,202.5C 164.833,205.833 156.167,209.167 147.5,212.5C 147.394,227.471 147.227,242.471 147,257.5C 146.261,260.573 144.428,262.74 141.5,264C 122.824,264.167 104.158,264.667 85.5,265.5C 75.3793,282.593 61.7126,286.093 44.5,276C 36.4484,268.508 33.6151,259.342 36,248.5C 41.3307,233.745 51.8307,227.578 67.5,230C 75.8145,232.481 81.8145,237.648 85.5,245.5C 100.152,246.499 114.818,246.833 129.5,246.5C 129,233.503 128.5,220.503 128,207.5C 121.633,197.8 116.133,187.633 111.5,177C 111.796,175.112 112.296,173.278 113,171.5C 116.833,168.333 120.667,165.167 124.5,162C 103.167,161.333 81.8333,161.333 60.5,162C 50.8698,179.493 37.2031,183.493 19.5,174C 7.69853,162.122 6.53186,149.288 16,135.5C 30.1499,123.56 43.8165,124.227 57,137.5C 58.5588,139.217 59.3921,141.217 59.5,143.5C 86.8682,143.951 114.202,143.284 141.5,141.5C 131.854,133.688 122.354,125.688 113,117.5C 112.023,115.26 111.523,112.927 111.5,110.5C 93.4969,110.667 75.4969,110.5 57.5,110C 55.3333,109.167 53.8333,107.667 53,105.5C 52.8327,92.4872 52.3327,79.4872 51.5,66.5C 35.0194,56.8845 31.186,43.5511 40,26.5C 53.7054,12.6384 67.7054,12.305 82,25.5C 90.4508,39.2119 88.9508,51.7119 77.5,63C 75.6297,64.3662 73.6297,65.5328 71.5,66.5C 70.502,75.1411 70.1686,83.8078 70.5,92.5C 87.5033,92.6666 104.503,92.4999 121.5,92C 124.667,86.8333 127.833,81.6667 131,76.5C 132.977,75.0951 135.143,74.0951 137.5,73.5C 149.647,77.4378 161.647,81.7711 173.5,86.5C 175.422,85.289 177.255,83.9557 179,82.5C 180.799,70.0372 183.132,57.7038 186,45.5C 187.214,43.9512 188.714,42.7845 190.5,42C 195.823,41.5006 201.156,41.334 206.5,41.5C 206.333,28.8289 206.5,16.1623 207,3.5C 208.376,2.29493 209.542,0.961599 210.5,-0.5 Z M 224.5,17.5 C 246.833,17.5 269.167,17.5 291.5,17.5C 291.334,24.175 291.5,30.8417 292,37.5C 292.833,39.6667 294.333,41.1667 296.5,42C 315.5,42.3333 334.5,42.6667 353.5,43C 346,53.1667 338.5,63.3333 331,73.5C 328.454,76.8597 326.621,80.5264 325.5,84.5C 315.161,84.6665 304.828,84.4998 294.5,84C 292.905,78.2369 289.239,74.7369 283.5,73.5C 271.353,77.4378 259.353,81.7711 247.5,86.5C 245.111,85.3978 243.277,83.7311 242,81.5C 240.308,69.3462 237.975,57.3462 235,45.5C 232.303,42.1295 228.803,40.7962 224.5,41.5C 224.5,33.5 224.5,25.5 224.5,17.5 Z M 58.5,34.5 C 67.56,34.0461 70.7266,38.0461 68,46.5C 63.6667,51.8333 59.3333,51.8333 55,46.5C 52.4576,41.3612 53.6243,37.3612 58.5,34.5 Z M 379.5,36.5 C 422.972,53.4698 451.805,84.1365 466,128.5C 471.259,146.133 471.593,163.799 467,181.5C 463.448,188.382 459.115,194.716 454,200.5C 453.177,204.738 453.844,208.738 456,212.5C 464.833,232.167 473.667,251.833 482.5,271.5C 474.521,272.332 466.521,272.832 458.5,273C 457.069,273.465 455.903,274.299 455,275.5C 453.549,285.729 453.049,296.062 453.5,306.5C 438.537,306.129 425.87,300.629 415.5,290C 405.836,288 401.669,291.833 403,301.5C 407.884,308.193 414.051,313.359 421.5,317C 427.735,319.743 434.068,322.077 440.5,324C 438.951,325.214 437.785,326.714 437,328.5C 436.5,343.83 436.333,359.163 436.5,374.5C 422.496,374.667 408.496,374.5 394.5,374C 370.78,363.064 348.28,350.23 327,335.5C 326.167,316.491 326.334,297.491 327.5,278.5C 340.126,273.236 352.793,268.069 365.5,263C 367.487,261.681 368.654,259.848 369,257.5C 369.945,243.764 369.612,230.097 368,216.5C 360,205.833 352,195.167 344,184.5C 343.333,152.167 343.333,119.833 344,87.5C 356.346,70.7911 368.179,53.7911 379.5,36.5 Z M 201.5,59.5 C 207.758,59.1903 213.924,59.5236 220,60.5C 221.678,71.5692 223.678,82.5692 226,93.5C 226.465,94.9308 227.299,96.0975 228.5,97C 232.828,98.8287 236.828,101.162 240.5,104C 243.702,105.483 247.036,105.817 250.5,105C 259.667,101.5 268.833,98 278,94.5C 278.772,94.6448 279.439,94.9781 280,95.5C 282.707,100.416 285.541,105.249 288.5,110C 279.667,117.5 270.833,125 262,132.5C 261.296,134.278 260.796,136.112 260.5,138C 261.833,142.333 261.833,146.667 260.5,151C 260.796,152.888 261.296,154.722 262,156.5C 270.833,164 279.667,171.5 288.5,179C 287.206,181.087 286.039,183.254 285,185.5C 283.355,189.132 281.021,192.132 278,194.5C 267.525,190.231 256.858,186.564 246,183.5C 244.833,183.667 243.667,183.833 242.5,184C 238.159,187.172 233.492,189.839 228.5,192C 226.683,193.8 225.516,195.966 225,198.5C 223.43,208.757 221.597,218.924 219.5,229C 213.251,229.809 207.084,229.642 201,228.5C 199.322,217.431 197.322,206.431 195,195.5C 194.535,194.069 193.701,192.903 192.5,192C 188.172,190.171 184.172,187.838 180.5,185C 177.634,183.543 174.634,183.21 171.5,184C 161.946,187.361 152.446,190.861 143,194.5C 142.228,194.355 141.561,194.022 141,193.5C 138.293,188.584 135.459,183.751 132.5,179C 141.333,171.5 150.167,164 159,156.5C 159.808,154.577 160.308,152.577 160.5,150.5C 160.349,144.446 159.849,138.446 159,132.5C 150.167,125 141.333,117.5 132.5,110C 135.459,105.249 138.293,100.416 141,95.5C 141.561,94.9781 142.228,94.6448 143,94.5C 153.355,98.6733 163.855,102.34 174.5,105.5C 175.833,105.333 177.167,105.167 178.5,105C 184.085,101.625 189.585,98.1249 195,94.5C 197.173,82.792 199.339,71.1253 201.5,59.5 Z M 305.5,103.5 C 311.979,102.509 318.646,102.176 325.5,102.5C 325.5,113.5 325.5,124.5 325.5,135.5C 312.829,135.667 300.162,135.5 287.5,135C 294.627,129.541 301.461,123.708 308,117.5C 310.292,112.25 309.459,107.584 305.5,103.5 Z M 205.5,128.5 C 217.882,127.015 225.215,132.348 227.5,144.5C 226.167,154.5 220.5,160.167 210.5,161.5C 196.666,158.481 191.833,150.148 196,136.5C 198.731,133.232 201.898,130.565 205.5,128.5 Z M 32.5,145.5 C 41.1905,145.234 44.3572,149.234 42,157.5C 38.5282,161.71 34.6948,162.21 30.5,159C 26.4087,153.779 27.0753,149.279 32.5,145.5 Z M 287.5,154.5 C 299.989,153.505 312.656,153.171 325.5,153.5C 325.5,164.5 325.5,175.5 325.5,186.5C 318.825,186.666 312.158,186.5 305.5,186C 309.423,181.629 310.256,176.796 308,171.5C 301.413,165.467 294.579,159.801 287.5,154.5 Z M 246.5,202.5 C 258.619,206.929 270.785,211.262 283,215.5C 288.812,214.527 292.645,211.193 294.5,205.5C 308.488,204.334 322.488,204.167 336.5,205C 341.211,211.589 346.045,218.089 351,224.5C 351.499,228.821 351.666,233.154 351.5,237.5C 339.833,237.5 328.167,237.5 316.5,237.5C 316.5,243.5 316.5,249.5 316.5,255.5C 322.509,255.334 328.509,255.501 334.5,256C 325.734,258.693 317.568,262.526 310,267.5C 308.571,274.719 308.071,282.053 308.5,289.5C 277.5,289.5 246.5,289.5 215.5,289.5C 215.5,275.5 215.5,261.5 215.5,247.5C 220.511,247.666 225.511,247.499 230.5,247C 232.624,245.878 234.457,244.378 236,242.5C 238.108,230.852 240.108,219.186 242,207.5C 243.193,205.503 244.693,203.836 246.5,202.5 Z M 58.5,247.5 C 67.7558,247.703 70.7558,252.037 67.5,260.5C 62.179,264.934 57.679,264.267 54,258.5C 52.7758,253.626 54.2758,249.959 58.5,247.5 Z M 181.5,307.5 C 198.167,307.5 214.833,307.5 231.5,307.5C 231.667,348.835 231.5,390.168 231,431.5C 226,437.167 221,442.833 216,448.5C 215.5,435.171 215.333,421.837 215.5,408.5C 209.5,408.5 203.5,408.5 197.5,408.5C 197.667,429.169 197.5,449.836 197,470.5C 190.618,478.093 184.118,485.593 177.5,493C 157.833,493.667 138.167,493.667 118.5,493C 139,472.5 159.5,452 180,431.5C 181.483,390.227 181.983,348.894 181.5,307.5 Z M 249.5,307.5 C 254.833,307.5 260.167,307.5 265.5,307.5C 265.333,325.17 265.5,342.836 266,360.5C 276.268,372.771 287.268,384.437 299,395.5C 299.494,397.134 299.66,398.801 299.5,400.5C 282.833,400.5 266.167,400.5 249.5,400.5C 249.5,369.5 249.5,338.5 249.5,307.5 Z M 283.5,307.5 C 291.833,307.5 300.167,307.5 308.5,307.5C 308.333,319.838 308.5,332.171 309,344.5C 312.28,348.735 316.447,351.902 321.5,354C 316.291,361.582 311.457,369.416 307,377.5C 299.333,369.833 291.667,362.167 284,354.5C 283.5,338.837 283.333,323.17 283.5,307.5 Z M 249.5,418.5 C 254.833,418.5 260.167,418.5 265.5,418.5C 265.5,443.5 265.5,468.5 265.5,493.5C 244.164,493.667 222.831,493.5 201.5,493C 217,475.5 232.5,458 248,440.5C 249.429,433.281 249.929,425.947 249.5,418.5 Z M 283.5,418.5 C 288.833,418.5 294.167,418.5 299.5,418.5C 299.334,427.173 299.5,435.84 300,444.5C 300.471,446.246 301.138,447.913 302,449.5C 316.5,464 331,478.5 345.5,493C 324.836,493.5 304.169,493.667 283.5,493.5C 283.5,468.5 283.5,443.5 283.5,418.5 Z"/></g>
<g><path style="opacity:0.925" fill="#000000" d="M 359.5,84.5 C 365.5,84.5 371.5,84.5 377.5,84.5C 377.5,96.1667 377.5,107.833 377.5,119.5C 371.5,119.5 365.5,119.5 359.5,119.5C 359.5,107.833 359.5,96.1667 359.5,84.5 Z"/></g>
<g><path style="opacity:0.933" fill="#000000" d="M 209.5,109.5 C 231.347,111.014 243.347,122.68 245.5,144.5C 243.5,165.833 231.833,177.5 210.5,179.5C 189.166,177.499 177.499,165.833 175.5,144.5C 177.456,123.555 188.789,111.889 209.5,109.5 Z M 205.5,128.5 C 201.898,130.565 198.731,133.232 196,136.5C 191.833,150.148 196.666,158.481 210.5,161.5C 220.5,160.167 226.167,154.5 227.5,144.5C 225.215,132.348 217.882,127.015 205.5,128.5 Z"/></g>
<g><path style="opacity:0.899" fill="#000000" d="M 359.5,135.5 C 365.5,135.5 371.5,135.5 377.5,135.5C 377.5,141.5 377.5,147.5 377.5,153.5C 371.5,153.5 365.5,153.5 359.5,153.5C 359.5,147.5 359.5,141.5 359.5,135.5 Z"/></g>
<g><path style="opacity:0.899" fill="#000000" d="M 359.5,169.5 C 365.5,169.5 371.5,169.5 377.5,169.5C 377.5,175.5 377.5,181.5 377.5,187.5C 371.5,187.5 365.5,187.5 359.5,187.5C 359.5,181.5 359.5,175.5 359.5,169.5 Z"/></g>
<g><path style="opacity:0.932" fill="#000000" d="M 434.5,169.5 C 439.023,169.18 442.523,170.846 445,174.5C 445.667,185.833 445.667,197.167 445,208.5C 443.891,210.815 442.057,212.315 439.5,213C 429.167,213.667 418.833,213.667 408.5,213C 402.911,210.549 401.078,206.383 403,200.5C 403.833,198.333 405.333,196.833 407.5,196C 414.158,195.5 420.825,195.334 427.5,195.5C 427.334,189.491 427.501,183.491 428,177.5C 428.612,173.403 430.779,170.736 434.5,169.5 Z"/></g>
<g><path style="opacity:0.899" fill="#000000" d="M 248.5,237.5 C 254.5,237.5 260.5,237.5 266.5,237.5C 266.5,243.5 266.5,249.5 266.5,255.5C 260.5,255.5 254.5,255.5 248.5,255.5C 248.5,249.5 248.5,243.5 248.5,237.5 Z"/></g>
<g><path style="opacity:0.899" fill="#000000" d="M 282.5,237.5 C 288.5,237.5 294.5,237.5 300.5,237.5C 300.5,243.5 300.5,249.5 300.5,255.5C 294.5,255.5 288.5,255.5 282.5,255.5C 282.5,249.5 282.5,243.5 282.5,237.5 Z"/></g>
<g><path style="opacity:0.899" fill="#000000" d="M 197.5,340.5 C 203.5,340.5 209.5,340.5 215.5,340.5C 215.5,346.5 215.5,352.5 215.5,358.5C 209.5,358.5 203.5,358.5 197.5,358.5C 197.5,352.5 197.5,346.5 197.5,340.5 Z"/></g>
<g><path style="opacity:0.9" fill="#000000" d="M 197.5,374.5 C 203.5,374.5 209.5,374.5 215.5,374.5C 215.5,380.5 215.5,386.5 215.5,392.5C 209.5,392.5 203.5,392.5 197.5,392.5C 197.5,386.5 197.5,380.5 197.5,374.5 Z"/></g>
</svg>
